<?xml version="1.0" encoding="utf-8"?>
<svg id="master-artboard" viewBox="0 0 1400 980" xmlns="http://www.w3.org/2000/svg" width="1400px" height="980px" version="1.1" style="shape-rendering:geometricPrecision; text-rendering:geometricPrecision; image-rendering:optimizeQuality; fill-rule:evenodd; clip-rule:evenodd"><rect id="ee-background" x="0" y="0" width="1400" height="980" style="fill: none; fill-opacity: 1; pointer-events: none;"/>
 
 <metadata id="CorelCorpID_0Corel-Layer"/>
<g transform="matrix(1.9137484648361665, 0, 0, 1.9137484648361665, 210.00003354778846, 4.133610786993813e-9)"><g transform="translate(0 1)">
	<path style="fill:#FD9808;" d="M8.568,476.909L8.568,476.909l250.88-250.88l76.8,76.8l-41.813,41.813&#10;&#9;&#9;C217.635,421.442,117.795,466.669,8.568,476.909"/>
	
	<path style="fill:#FD9808;" d="M363.555,248.215c0,0,59.733-50.347,92.16-104.96c0,0,7.68-20.48,39.253-14.507&#10;&#9;&#9;c0,0,29.013-24.747-19.627-73.387l-23.04-22.187L259.448,226.029l50.347,50.347C326.861,270.402,345.635,261.869,363.555,248.215"/>
	<path style="fill: rgb(232, 170, 49);" d="M348.195,237.122c0,0,58.027-51.2,93.867-103.253c0,0,9.387-18.773,36.693-17.067&#10;&#9;&#9;c0,0,28.16-24.747-8.533-61.44l-17.067-17.067l-193.707,192l38.4,38.4C313.208,261.015,331.128,250.775,348.195,237.122"/>
	<path d="M324.301,201.282c5.12-5.12,12.8-5.12,17.92,0s5.12,12.8,0,17.92c-5.12,5.12-12.8,5.12-17.92,0&#10;&#9;&#9;C320.035,214.082,320.035,206.402,324.301,201.282"/>
	<path d="M415.608,110.829c5.12-5.12,12.8-5.12,17.92,0s5.12,12.8,0,17.92c-5.12,5.12-12.8,5.12-17.92,0&#10;&#9;&#9;C410.488,123.629,410.488,115.949,415.608,110.829"/>
	<path d="M8.568,485.442c-3.413,0-5.973-1.707-7.68-5.12s-0.853-6.827,1.707-9.387l250.88-250.88c3.413-3.413,8.533-3.413,11.947,0&#10;&#9;&#9;l76.8,76.8c1.707,1.707,2.56,3.413,2.56,5.973c0,2.56-0.853,4.267-2.56,5.973l-41.813,41.813&#10;&#9;&#9;C222.755,428.269,122.061,475.202,8.568,485.442C9.421,485.442,8.568,485.442,8.568,485.442z M259.448,237.975l-227.84,227.84&#10;&#9;&#9;c98.987-13.653,187.733-58.027,257.707-128l34.987-34.987L259.448,237.975z"/>
	<path d="M309.795,284.909c-2.56,0-4.267-0.853-5.973-2.56l-50.347-50.347c-3.413-3.413-3.413-8.533,0-11.947L446.328,27.202&#10;&#9;&#9;c1.707-1.707,3.413-2.56,5.973-2.56l0,0c2.56,0,4.267,0.853,5.973,2.56l23.04,23.04c21.333,21.333,31.573,40.96,30.72,58.88&#10;&#9;&#9;c-0.853,17.067-10.24,25.6-11.093,26.453c-1.707,1.707-4.267,2.56-6.827,1.707c-23.893-5.12-29.867,8.533-29.867,8.533&#10;&#9;&#9;c0,0.853,0,0.853-0.853,1.707c-33.28,55.467-91.307,104.96-93.867,106.667l0,0c-16.213,11.947-34.987,22.187-55.467,29.013&#10;&#9;&#9;C312.355,284.055,311.501,284.909,309.795,284.909z M271.395,226.029l40.96,40.96c17.067-5.973,32.427-14.507,46.08-24.747&#10;&#9;&#9;c3.413-3.413,58.88-51.2,89.6-101.547c4.267-8.533,17.067-23.04,43.52-19.627c1.707-3.413,3.413-7.68,3.413-12.8&#10;&#9;&#9;c0-9.387-4.267-24.747-25.6-46.08l-17.067-17.067L271.395,226.029z M363.555,248.215L363.555,248.215L363.555,248.215z"/>
	<path d="M 4.8218261413574215 482.16410693359376 C 21.310375213623047 486.8468017578125 -18.862954258918762 489.4377746582031 -0.282679271221161 473.8497373046875 C 5.298786959828335 469.16712379635453 7.594396415710449 465.3992607421875 11.861396415710448 463.6932607421875 C 166.31439641571046 410.7862607421875 298.70099999999996 267.84299999999996 299.555 266.13599999999997 C 302.968 262.72299999999996 308.088 262.72299999999996 311.502 265.28299999999996 C 314.915 268.69599999999997 314.915 273.816 312.355 277.22999999999996 C 310.648 278.93699999999995 175.93553299713136 423.26960644531243 17.21553299713139 478.7366064453125 C 16.362532997131346 479.5886064453125 4.00128448709787 481.93106118611126 4.8218261413574215 482.16410693359376 Z"/>
<path style="fill: rgb(232, 170, 49);" d="M4.301,481.175L4.301,481.175l250.88-250.88l64,64l-41.813,41.813&#10;&#9;&#9;C200.568,412.909,105.848,463.255,4.301,481.175" transform="matrix(0.954740985143005, 0, 0, 0.954740985143005, 11.097797832526943, 13.090435649455713)"/><path d="M 165.19741821289062 341.66241455078125 L 165.19741821289062 341.66241455078125 L 226.60838317871094 287.47625732421875" style="fill: rgb(232, 170, 49); fill-opacity: 1; stroke: rgb(0, 0, 0); stroke-opacity: 1; stroke-width: 0; paint-order: fill;"/><path d="M 186.8718719482422 328.1158752441406 L 173.32533264160156 344.3717041015625" style="fill: rgb(232, 170, 49); fill-opacity: 1; stroke: rgb(0, 0, 0); stroke-opacity: 1; stroke-width: 0; paint-order: fill;"/><path d="M -1.7631072998046875 459.41070556640625" style="fill: rgb(0, 0, 0); fill-opacity: 1; stroke: rgb(0, 0, 0); stroke-opacity: 1; stroke-width: 0; paint-order: fill;"/></g><g>
</g><g>
</g><g>
</g><g>
</g><g>
</g><g>
</g><g>
</g><g>
</g><g>
</g><g>
</g><g>
</g><g>
</g><g>
</g><g>
</g><g>
</g></g><path d="M324.301,201.282c5.12-5.12,12.8-5.12,17.92,0s5.12,12.8,0,17.92c-5.12,5.12-12.8,5.12-17.92,0&#10;&#9;&#9;C320.035,214.082,320.035,206.402,324.301,201.282" transform="matrix(1.9137485027313235, 0, 0, 1.9137485027313235, 302.3977883731824, -85.33155322225076)"/></svg>