<svg width="28" height="25" xmlns="http://www.w3.org/2000/svg" fill="#E8AA31">

 <g>
  <title>Layer 1</title>
  <path id="svg_1" fill="#e8aa31" d="m20.1004,0c-2.3835,0 -4.6148,1.00889 -6.1004,2.69927c-1.4856,-1.69044 -3.7168,-2.69927 -6.10043,-2.69927c-4.35582,0 -7.89957,3.31281 -7.89957,7.3849c0,3.1886 2.03385,6.8767 6.04492,10.9619c3.08683,3.1438 6.44478,5.578 7.40048,6.2492l0.5544,0.3894l0.5545,-0.3893c0.9556,-0.6712 4.3137,-3.1054 7.4006,-6.2491c4.0112,-4.0852 6.0451,-7.7734 6.0451,-10.9621c0,-4.07209 -3.5438,-7.3849 -7.8996,-7.3849zm0.4944,17.1798c-2.539,2.5858 -5.2706,4.6761 -6.595,5.6395c-1.3243,-0.9634 -4.0558,-3.0537 -6.59482,-5.6396c-3.63661,-3.7037 -5.55883,-7.0908 -5.55883,-9.7948c0,-3.12038 2.71557,-5.65903 6.05342,-5.65903c2.19653,0 4.22473,1.11917 5.29313,2.92081l0.8073,1.36149l0.8073,-1.36149c1.0683,-1.80158 3.0965,-2.92081 5.2931,-2.92081c3.3379,0 6.0534,2.53859 6.0534,5.65903c0,2.7042 -1.9222,6.0912 -5.559,9.7949z"/>
  <path stroke="#e8aa31" id="svg_3" d="m19.5678,16.16938c-3.86295,0 -6.99194,-3.37661 -6.99194,-7.54526c0,-4.16865 3.12899,-7.54526 6.99194,-7.54526c3.86295,0 6.99194,3.37661 6.99194,7.54526c0,4.16865 -3.12899,7.54526 -6.99194,7.54526z" opacity="undefined" fill="#e8aa31"/>
  <path stroke-width="0" stroke="#e8aa31" id="svg_5" d="m8.30021,16.06878c-3.86295,0 -6.99194,-3.37661 -6.99194,-7.54527c0,-4.16865 3.12899,-7.54526 6.99194,-7.54526c3.86295,0 6.99194,3.37661 6.99194,7.54526c0,4.16866 -3.12899,7.54527 -6.99194,7.54527z" opacity="undefined" fill="#e8aa31"/>
  <rect id="svg_12" height="0.20121" width="0.40241" y="-5.76218" x="8.65232" fill="none"/>
  <path transform="rotate(-178.962 13.8325 18.7014)" stroke="null" id="svg_14" d="m2.99708,24.393l10.8354,-11.38311l10.8354,11.38311l-21.67081,0z" fill="#e8aa31"/>
 </g>
</svg>