<svg width="190" height="25" xmlns="http://www.w3.org/2000/svg" fill="none">

 <g>
  <title>Layer 1</title>
  <path id="svg_2" fill="#1F1C21" d="m1.52161,0.34279l0,9.66011l0.44498,0c0.03438,-0.55377 0.12001,-1.11346 0.26281,-1.67282c0.13688,-0.5653 0.31374,-1.10745 0.53655,-1.62712c0.21687,-0.51405 0.46811,-0.98186 0.75342,-1.40466c0.27999,-0.41655 0.58811,-0.75374 0.91403,-1.01655c0.23969,-0.19937 0.5478,-0.3881 0.93029,-0.5706c0.38249,-0.18281 0.83936,-0.33124 1.37029,-0.4453c0.53686,-0.12 1.14779,-0.17717 1.84402,-0.1828l7.2623,0l-15.27804,21.03315l0.06843,0.2057l22.09541,0l0,-11.0991l-0.4453,0c-0.0344,0.6284 -0.0975,1.2674 -0.1888,1.9127c-0.0968,0.6453 -0.2281,1.2735 -0.3993,1.8841c-0.1772,0.6109 -0.4,1.1762 -0.6738,1.7015c-0.274,0.5197 -0.6053,0.9706 -0.9993,1.3531c-0.4966,0.4625 -1.0219,0.7993 -1.57,1.0165c-0.5537,0.2169 -1.1018,0.3537 -1.6559,0.4109c-0.5478,0.0628 -1.0731,0.0854 -1.5699,0.0797l-7.5364,0l15.2099,-21.03319l-0.1712,-0.20532l-21.20449,0zm28.08989,20.14261c0.0057,0.2794 -0.0056,0.565 -0.0397,0.8619c-0.0287,0.2968 -0.1087,0.5937 -0.2284,0.8793c-0.12,0.2856 -0.32,0.5538 -0.5881,0.7938c-0.2572,0.2109 -0.5422,0.3768 -0.8681,0.4853c-0.3194,0.1143 -0.6506,0.194 -0.9931,0.2396c-0.3428,0.0457 -0.6681,0.0797 -0.9822,0.0972l-0.5822,0.0341l0,0.4453l24.0476,0l0,-10.4141l-0.4453,0l-0.1025,1.0624c-0.0516,0.565 -0.1316,1.1247 -0.2341,1.6953c-0.1087,0.5653 -0.28,1.1134 -0.5253,1.6443c-0.24,0.5369 -0.5937,1.0278 -1.0562,1.4903c-0.1428,0.1485 -0.354,0.3256 -0.6281,0.525c-0.2744,0.2 -0.6222,0.3944 -1.0506,0.5825c-0.4281,0.1944 -0.9422,0.3541 -1.5415,0.48c-0.5997,0.1253 -1.2959,0.1881 -2.0897,0.1937l-7.8448,0l0,-17.40205c-0.0056,-0.2 0.0056,-0.45092 0.0403,-0.74779c0.0285,-0.29686 0.1082,-0.60528 0.2282,-0.92496c0.1259,-0.31999 0.3196,-0.60498 0.5881,-0.86216c0.2456,-0.21687 0.5309,-0.37688 0.8562,-0.48501c0.3316,-0.11437 0.6681,-0.19435 1.0165,-0.24029c0.3425,-0.04531 0.6681,-0.0797 0.9706,-0.09689l0.5825,-0.03405l0,-0.44531l-12.8119,0l0,0.44531l0.5822,0.03405c0.3029,0.01719 0.6282,0.05158 0.9766,0.09689c0.3422,0.04594 0.6793,0.12592 1.0103,0.24029c0.3256,0.10813 0.6112,0.26814 0.8565,0.48501c0.2681,0.25718 0.4681,0.54217 0.5881,0.86216c0.1197,0.31968 0.1997,0.6281 0.2284,0.92496c0.0341,0.29687 0.0454,0.54779 0.0397,0.74779l0,16.30615zm32.4064,-20.4854l-7.4679,18.0189c-0.251,0.5878 -0.4794,1.0903 -0.685,1.5015c-0.2056,0.411 -0.3825,0.7538 -0.5366,1.0275c-0.1543,0.2684 -0.2856,0.4856 -0.3881,0.6566c-0.1087,0.1831 -0.2628,0.4056 -0.4512,0.6568c-0.1885,0.251 -0.4281,0.5081 -0.7194,0.7706c-0.2856,0.2572 -0.6278,0.4913 -1.0334,0.6969c-0.3997,0.2053 -0.8622,0.3537 -1.3931,0.4453l-0.6509,0.1025l0,0.4453l12.2981,0l0,-0.4453l-0.8565,-0.0685c-0.3366,-0.0228 -0.6966,-0.08 -1.0791,-0.1712c-0.3824,-0.0913 -0.7421,-0.2341 -1.0849,-0.4225c-0.3422,-0.1884 -0.6278,-0.434 -0.8503,-0.7425c-0.1831,-0.2565 -0.3084,-0.559 -0.3825,-0.9131c-0.0687,-0.3484 -0.0919,-0.7084 -0.0572,-1.079c0.0281,-0.3653 0.1081,-0.7081 0.2341,-1.0222l1.3018,-3.1858l8.7695,0l1.5415,3.7683c0.0913,0.2109 0.1656,0.4397 0.234,0.6906c0.0685,0.2569 0.1026,0.5028 0.1085,0.7481c-0.0059,0.5081 -0.1028,0.9134 -0.2969,1.2103c-0.1884,0.3025 -0.434,0.5253 -0.7306,0.6737c-0.1547,0.0913 -0.3428,0.1654 -0.5596,0.2225c-0.2172,0.0572 -0.4794,0.1088 -0.7994,0.1485c-0.3197,0.0403 -0.7137,0.0743 -1.1759,0.1087l-0.5141,0.0341l0,0.4453l13.4287,0l0,-0.4453l-0.5484,-0.0341c-0.4053,-0.0231 -0.8053,-0.0916 -1.199,-0.2056c-0.3938,-0.1088 -0.7537,-0.2516 -1.0847,-0.4225c-0.3368,-0.1712 -0.6112,-0.3656 -0.8337,-0.5706c-0.1997,-0.2 -0.394,-0.4628 -0.5765,-0.7825c-0.1885,-0.3253 -0.3941,-0.7537 -0.6281,-1.2903c-0.2285,-0.5309 -0.5141,-1.2102 -0.8507,-2.0384l-7.5704,-18.5326l-2.9121,0zm4.1111,13.8737l-7.057,0l3.4943,-8.42697l0.0684,0l3.4943,8.42697zm22.4379,-10.79065l2.535,0c0.1996,-0.00562 0.4512,0.00563 0.7537,0.02875c0.3025,0.02281 0.6278,0.06844 0.9818,0.14843c0.3541,0.07406 0.7078,0.19375 1.0619,0.35406c0.3597,0.16562 0.6909,0.3881 1.005,0.66746c0.2856,0.26281 0.5424,0.61123 0.7765,1.05091c0.2281,0.43936 0.4341,0.92497 0.605,1.4559c0.1772,0.53655 0.3197,1.07935 0.4284,1.62715c0.1081,0.54811 0.1769,1.06748 0.2112,1.5531l0.4454,0l0,-9.62601l-21.8554,0l0,9.62601l0.4453,0c0.034,-0.48562 0.1081,-1.00499 0.2169,-1.5531c0.1028,-0.5478 0.2453,-1.0906 0.4221,-1.62715c0.1716,-0.53093 0.3769,-1.01654 0.6112,-1.4559c0.2285,-0.43968 0.4854,-0.7881 0.7707,-1.05091c0.314,-0.27936 0.6453,-0.50184 1.0046,-0.66746c0.3544,-0.16031 0.7084,-0.28 1.0625,-0.35406c0.3537,-0.07999 0.6794,-0.12562 0.9819,-0.14843c0.3024,-0.02312 0.5537,-0.03437 0.7537,-0.02875l2.5349,0l0,17.40235c0.0057,0.1997 -0.0056,0.4509 -0.0403,0.7481c-0.0284,0.2969 -0.1081,0.605 -0.2281,0.9247c-0.1197,0.3137 -0.3197,0.605 -0.5881,0.8622c-0.2456,0.2109 -0.531,0.3768 -0.8563,0.4853c-0.3315,0.1143 -0.6681,0.1884 -1.0109,0.2396c-0.3481,0.0457 -0.6737,0.0741 -0.9762,0.0972l-0.5825,0.0341l0,0.4453l12.8119,0l0,-0.4453l-0.5822,-0.0341c-0.3028,-0.0231 -0.6281,-0.0515 -0.9706,-0.0972c-0.3481,-0.0512 -0.6853,-0.1253 -1.0162,-0.2396c-0.3256,-0.1085 -0.6106,-0.2744 -0.8566,-0.4853c-0.2681,-0.2572 -0.4624,-0.5485 -0.5881,-0.8622c-0.1196,-0.3197 -0.1997,-0.6278 -0.2284,-0.9247c-0.0341,-0.2972 -0.0453,-0.5484 -0.0397,-0.7481l0,-17.40235zm43.6431,-2.74026l-10.277,0l-6.406,16.27181l-0.103,0l-6.406,-16.27181l-10.6879,0l0,0.44531l0.5825,0.03405c0.3025,0.01719 0.6278,0.05158 0.9762,0.09689c0.3422,0.04594 0.6792,0.12592 1.0102,0.24029c0.326,0.10813 0.611,0.26814 0.857,0.48501c0.268,0.25718 0.468,0.54217 0.588,0.86216c0.119,0.31968 0.199,0.6281 0.228,0.92496c0.034,0.29687 0.046,0.54779 0.04,0.74779l0,15.62085c0.006,0.2628 -0.011,0.5822 -0.045,0.9591c-0.035,0.3768 -0.115,0.7593 -0.24,1.1421c-0.12,0.3825 -0.314,0.7078 -0.571,0.9822c-0.223,0.2169 -0.508,0.3937 -0.845,0.5309c-0.337,0.1369 -0.686,0.2397 -1.0394,0.3081c-0.3596,0.0685 -0.6793,0.1084 -0.959,0.12l-0.5825,0.0341l0,0.4453l11.5439,0l0,-0.4453l-0.582,-0.0341c-0.28,-0.0116 -0.599,-0.0515 -0.959,-0.12c-0.354,-0.0684 -0.702,-0.1712 -1.039,-0.3081c-0.337,-0.1372 -0.623,-0.314 -0.845,-0.5309c-0.206,-0.2116 -0.366,-0.4569 -0.48,-0.7425c-0.12,-0.2853 -0.205,-0.5766 -0.257,-0.8794c-0.051,-0.2968 -0.085,-0.5765 -0.102,-0.8334c-0.012,-0.2628 -0.018,-0.4681 -0.018,-0.6281l0,-16.13457l0.103,0l8.153,20.65637l1.576,0l8.153,-20.65637l0.103,0l0,16.81987c0.005,0.1997 -0.006,0.4509 -0.04,0.7481c-0.029,0.2969 -0.103,0.605 -0.229,0.9247c-0.12,0.3137 -0.319,0.605 -0.588,0.8622c-0.245,0.2109 -0.531,0.3768 -0.856,0.4853c-0.331,0.1143 -0.668,0.1884 -1.011,0.2396c-0.348,0.0457 -0.673,0.0741 -0.976,0.0972l-0.582,0.0341l0,0.4453l12.812,0l0,-0.4453l-0.583,-0.0341c-0.302,-0.0231 -0.628,-0.0515 -0.971,-0.0972c-0.348,-0.0512 -0.684,-0.1253 -1.01,-0.2396c-0.331,-0.1085 -0.617,-0.2744 -0.862,-0.4853c-0.269,-0.2572 -0.462,-0.5485 -0.588,-0.8622c-0.12,-0.3197 -0.2,-0.6278 -0.229,-0.9247c-0.028,-0.2972 -0.045,-0.5484 -0.039,-0.7481l0,-16.30615c-0.006,-0.2 0.011,-0.45092 0.039,-0.74779c0.029,-0.29686 0.109,-0.60528 0.229,-0.92496c0.126,-0.31999 0.319,-0.60498 0.588,-0.86216c0.245,-0.21687 0.531,-0.37688 0.862,-0.48501c0.326,-0.11437 0.662,-0.19435 1.01,-0.24029c0.343,-0.04531 0.669,-0.0797 0.971,-0.09689l0.583,-0.03405l0,-0.44531zm12.571,-0.34279l-7.467,18.0189c-0.251,0.5878 -0.48,1.0903 -0.685,1.5015c-0.206,0.411 -0.383,0.7538 -0.537,1.0275c-0.154,0.2684 -0.286,0.4856 -0.388,0.6566c-0.109,0.1831 -0.263,0.4056 -0.451,0.6568c-0.189,0.251 -0.428,0.5081 -0.72,0.7706c-0.285,0.2572 -0.628,0.4913 -1.033,0.6969c-0.4,0.2053 -0.862,0.3537 -1.393,0.4453l-0.651,0.1025l0,0.4453l12.298,0l0,-0.4453l-0.857,-0.0685c-0.336,-0.0228 -0.696,-0.08 -1.079,-0.1712c-0.382,-0.0913 -0.742,-0.2341 -1.085,-0.4225c-0.342,-0.1884 -0.627,-0.434 -0.85,-0.7425c-0.183,-0.2565 -0.308,-0.559 -0.382,-0.9131c-0.069,-0.3484 -0.092,-0.7084 -0.058,-1.079c0.029,-0.3653 0.109,-0.7081 0.235,-1.0222l1.301,-3.1858l8.77,0l1.541,3.7683c0.092,0.2109 0.166,0.4397 0.234,0.6906c0.069,0.2569 0.103,0.5028 0.109,0.7481c-0.006,0.5081 -0.103,0.9134 -0.297,1.2103c-0.188,0.3025 -0.434,0.5253 -0.731,0.6737c-0.154,0.0913 -0.342,0.1654 -0.559,0.2225c-0.217,0.0572 -0.48,0.1088 -0.8,0.1485c-0.319,0.0403 -0.713,0.0743 -1.176,0.1087l-0.514,0.0341l0,0.4453l13.429,0l0,-0.4453l-0.548,-0.0341c-0.406,-0.0231 -0.806,-0.0916 -1.199,-0.2056c-0.394,-0.1088 -0.754,-0.2516 -1.085,-0.4225c-0.337,-0.1712 -0.611,-0.3656 -0.834,-0.5706c-0.199,-0.2 -0.393,-0.4628 -0.576,-0.7825c-0.189,-0.3253 -0.394,-0.7537 -0.628,-1.2903c-0.229,-0.5309 -0.514,-1.2102 -0.851,-2.0384l-7.57,-18.5326l-2.913,0zm4.112,13.8737l-7.057,0l3.494,-8.42697l0.068,0l3.495,8.42697zm10.859,-13.5309l0,0.4453l0.651,0.13717c0.416,0.09687 0.845,0.27939 1.284,0.54219c0.44,0.2625 0.862,0.56497 1.267,0.9134c0.406,0.34843 0.766,0.69657 1.08,1.04468l7.913,8.80416l-6.68,7.7761c-0.114,0.1428 -0.28,0.3137 -0.485,0.5193c-0.206,0.2056 -0.434,0.4228 -0.674,0.6453c-0.245,0.2228 -0.474,0.4284 -0.696,0.6166c-0.217,0.1887 -0.4,0.3371 -0.543,0.4453c-0.537,0.394 -1.119,0.7365 -1.747,1.0165c-0.622,0.2793 -1.239,0.4909 -1.85,0.6278l0,0.4453l13.463,0l0,-0.4453l-0.822,-0.0685c-0.645,-0.0571 -1.142,-0.1315 -1.496,-0.2168c-0.348,-0.0916 -0.582,-0.1544 -0.697,-0.1941c-0.245,-0.0916 -0.474,-0.2056 -0.69,-0.3597c-0.217,-0.1484 -0.4,-0.3371 -0.537,-0.5768c-0.137,-0.2341 -0.206,-0.5253 -0.211,-0.8794c0.005,-0.2681 0.079,-0.5478 0.217,-0.8446c0.137,-0.2969 0.291,-0.5713 0.468,-0.8222c0.177,-0.2513 0.325,-0.4513 0.445,-0.5941l4.351,-5.0698l4.693,5.1726c0.245,0.2629 0.474,0.5369 0.691,0.8166c0.216,0.2853 0.399,0.5709 0.536,0.8678c0.137,0.2912 0.206,0.5881 0.211,0.885c-0.005,0.3368 -0.097,0.6165 -0.279,0.8393c-0.178,0.2169 -0.417,0.3938 -0.714,0.5309c-0.314,0.1541 -0.679,0.2685 -1.084,0.3428c-0.406,0.0741 -0.811,0.1194 -1.211,0.1369l-0.993,0.0341l0,0.4453l14.387,0l0,-0.4453c-0.377,-0.0457 -0.788,-0.1428 -1.227,-0.2913c-0.446,-0.1484 -0.914,-0.3824 -1.411,-0.7018c-0.622,-0.4341 -1.227,-0.9537 -1.804,-1.5703c-0.576,-0.6112 -1.188,-1.285 -1.827,-2.0268l-7.297,-8.1533l4.625,-5.34357c0.331,-0.38249 0.68,-0.78809 1.045,-1.22214c0.371,-0.43405 0.765,-0.85625 1.187,-1.26748c0.418,-0.41093 0.874,-0.78187 1.365,-1.1078c0.303,-0.19374 0.634,-0.38248 1.005,-0.55903c0.371,-0.17687 0.759,-0.32531 1.164,-0.45687c0.4,-0.13125 0.794,-0.22842 1.188,-0.28561l0.685,-0.1025l0,-0.44531l-13.771,0l0,0.44531l0.856,0.06845c0.629,0.05125 1.143,0.14246 1.542,0.26809c0.4,0.12593 0.708,0.28 0.925,0.45125c0.252,0.18843 0.434,0.39405 0.537,0.62248c0.103,0.23406 0.154,0.49063 0.149,0.78187c-0.006,0.34281 -0.052,0.64527 -0.149,0.91902c-0.092,0.26874 -0.206,0.50282 -0.343,0.70844c-0.137,0.20562 -0.268,0.38247 -0.399,0.5309l-3.426,4.00805l-4.864,-5.4127c-0.183,-0.20562 -0.314,-0.38809 -0.383,-0.54809c-0.068,-0.15968 -0.103,-0.30811 -0.097,-0.4453c-0.006,-0.2628 0.057,-0.51936 0.2,-0.77061c0.137,-0.25155 0.388,-0.47405 0.759,-0.6681c0.177,-0.08031 0.383,-0.15439 0.622,-0.21689c0.24,-0.06281 0.486,-0.11436 0.731,-0.15404c0.246,-0.03438 0.468,-0.06281 0.668,-0.07437l0.788,-0.06845l0,-0.44531l-13.291,0l0,0.00001z"/>
  <path id="svg_7" d="m124.69792,54.87642l0.56913,0l0.17587,-0.54067l0.17587,0.54067l0.56913,0l-0.46044,0.33415l0.17588,0.54067l-0.46044,-0.33416l-0.46044,0.33416l0.17588,-0.54067l-0.46044,-0.33415z" stroke="null" fill="#1F1C21"/>
 </g>
</svg>